# xmcd
#
# Track frame offsets:
# 150
# 21694
# 36226
# 55591
# 86622
# 99617
# 132187
# 142683
# 171136
# 198863
#
# Disc length: 3211 seconds
#
#
# Revision: 10
# Processed by: cddbd v1.5PL3 Copyright (c) Steve Scherf et al.
# Submitted via: FreeRIP 2.40 
#
DISCID=800c890a,820c890a
DTITLE=Gary Moore - Back To The Blues
DYEAR=2001
DGENRE=Blues
TTITLE0=Enough Of The Blues
TTITLE1=You Upset Me Baby
TTITLE2=Cold Black Night
TTITLE3=Stormy Monday
TTITLE4=Ain't Got You
TTITLE5=Picture Of The Moon
TTITLE6=Looking Back
TTITLE7=The Prophet
TTITLE8=How Many Lies
TTITLE9=Drowning In Tears
EXTD=LABEL =CMC International Records\nID =0607686302-2\nUPC =none\nCOPYRIGHT =2001\n*****\n YEAR: 2001
EXTT0=
EXTT1=
EXTT2=
EXTT3=
EXTT4=
EXTT5=
EXTT6=
EXTT7=
EXTT8=
EXTT9=
PLAYORDER=
